<mxfile host="www.draw.io" modified="2019-11-30T19:37:49.775Z" agent="Mozilla/5.0 (Windows NT 6.1; Win64; x64) AppleWebKit/537.36 (KHTML, like Gecko) Chrome/75.0.3770.142 Safari/537.36" etag="4G131aQqKLs6xkjsQFwq" version="12.2.7" type="github" pages="1">
  <diagram id="qZluPed-zT6oztnqfB_8" name="Page-1">
    <mxGraphModel dx="1422" dy="794" grid="1" gridSize="10" guides="1" tooltips="1" connect="1" arrows="1" fold="1" page="1" pageScale="1" pageWidth="827" pageHeight="1169" math="0" shadow="0">
      <root>
        <mxCell id="0"/>
        <mxCell id="1" parent="0"/>
        <mxCell id="cF-n6QQyFELT4aqLtnUb-5" value="" style="shape=link;html=1;" edge="1" parent="1">
          <mxGeometry width="50" height="50" relative="1" as="geometry">
            <mxPoint x="430" y="750" as="sourcePoint"/>
            <mxPoint x="430" y="120" as="targetPoint"/>
          </mxGeometry>
        </mxCell>
        <mxCell id="cF-n6QQyFELT4aqLtnUb-6" value="开发分支" style="text;html=1;resizable=0;points=[];align=center;verticalAlign=middle;labelBackgroundColor=#ffffff;" vertex="1" connectable="0" parent="cF-n6QQyFELT4aqLtnUb-5">
          <mxGeometry x="0.7778" y="4" relative="1" as="geometry">
            <mxPoint x="4" y="-70" as="offset"/>
          </mxGeometry>
        </mxCell>
        <mxCell id="cF-n6QQyFELT4aqLtnUb-7" value="" style="shape=link;html=1;" edge="1" parent="1">
          <mxGeometry width="50" height="50" relative="1" as="geometry">
            <mxPoint x="570" y="750" as="sourcePoint"/>
            <mxPoint x="570" y="120" as="targetPoint"/>
          </mxGeometry>
        </mxCell>
        <mxCell id="cF-n6QQyFELT4aqLtnUb-8" value="发布分支" style="text;html=1;resizable=0;points=[];align=center;verticalAlign=middle;labelBackgroundColor=#ffffff;" vertex="1" connectable="0" parent="cF-n6QQyFELT4aqLtnUb-7">
          <mxGeometry x="0.7778" y="4" relative="1" as="geometry">
            <mxPoint x="4" y="-70" as="offset"/>
          </mxGeometry>
        </mxCell>
        <mxCell id="cF-n6QQyFELT4aqLtnUb-9" value="" style="shape=link;html=1;" edge="1" parent="1">
          <mxGeometry width="50" height="50" relative="1" as="geometry">
            <mxPoint x="710" y="750" as="sourcePoint"/>
            <mxPoint x="710" y="120" as="targetPoint"/>
          </mxGeometry>
        </mxCell>
        <mxCell id="cF-n6QQyFELT4aqLtnUb-10" value="老版本修复分支" style="text;html=1;resizable=0;points=[];align=center;verticalAlign=middle;labelBackgroundColor=#ffffff;" vertex="1" connectable="0" parent="cF-n6QQyFELT4aqLtnUb-9">
          <mxGeometry x="0.7778" y="4" relative="1" as="geometry">
            <mxPoint x="4" y="-70" as="offset"/>
          </mxGeometry>
        </mxCell>
        <mxCell id="cF-n6QQyFELT4aqLtnUb-12" value="" style="endArrow=classic;html=1;" edge="1" parent="1">
          <mxGeometry width="50" height="50" relative="1" as="geometry">
            <mxPoint x="570" y="280" as="sourcePoint"/>
            <mxPoint x="170" y="390" as="targetPoint"/>
          </mxGeometry>
        </mxCell>
        <mxCell id="cF-n6QQyFELT4aqLtnUb-21" value="" style="group" vertex="1" connectable="0" parent="1">
          <mxGeometry x="290" y="120" height="630" as="geometry"/>
        </mxCell>
        <mxCell id="cF-n6QQyFELT4aqLtnUb-3" value="" style="shape=link;html=1;" edge="1" parent="cF-n6QQyFELT4aqLtnUb-21">
          <mxGeometry width="50" height="50" relative="1" as="geometry">
            <mxPoint y="630" as="sourcePoint"/>
            <mxPoint as="targetPoint"/>
          </mxGeometry>
        </mxCell>
        <mxCell id="cF-n6QQyFELT4aqLtnUb-4" value="bug或优化" style="text;html=1;resizable=0;points=[];align=center;verticalAlign=middle;labelBackgroundColor=#ffffff;" vertex="1" connectable="0" parent="cF-n6QQyFELT4aqLtnUb-3">
          <mxGeometry x="0.7778" y="4" relative="1" as="geometry">
            <mxPoint x="4" y="-70" as="offset"/>
          </mxGeometry>
        </mxCell>
        <mxCell id="cF-n6QQyFELT4aqLtnUb-41" value="" style="endArrow=classic;html=1;exitX=1;exitY=0.5;exitDx=0;exitDy=0;fillColor=#fad9d5;strokeColor=#FFCCCC;strokeWidth=2;dashed=1;" edge="1" parent="cF-n6QQyFELT4aqLtnUb-21" source="cF-n6QQyFELT4aqLtnUb-39">
          <mxGeometry width="50" height="50" relative="1" as="geometry">
            <mxPoint y="230" as="sourcePoint"/>
            <mxPoint x="420" y="240" as="targetPoint"/>
          </mxGeometry>
        </mxCell>
        <mxCell id="cF-n6QQyFELT4aqLtnUb-23" value="" style="endArrow=classic;html=1;" edge="1" parent="1">
          <mxGeometry width="50" height="50" relative="1" as="geometry">
            <mxPoint x="570" y="210" as="sourcePoint"/>
            <mxPoint x="290" y="260" as="targetPoint"/>
          </mxGeometry>
        </mxCell>
        <mxCell id="cF-n6QQyFELT4aqLtnUb-27" value="" style="shape=link;html=1;" edge="1" parent="1">
          <mxGeometry width="50" height="50" relative="1" as="geometry">
            <mxPoint x="170" y="750" as="sourcePoint"/>
            <mxPoint x="170" y="120" as="targetPoint"/>
          </mxGeometry>
        </mxCell>
        <mxCell id="cF-n6QQyFELT4aqLtnUb-28" value="老版本修复分支" style="text;html=1;resizable=0;points=[];align=center;verticalAlign=middle;labelBackgroundColor=#ffffff;" vertex="1" connectable="0" parent="cF-n6QQyFELT4aqLtnUb-27">
          <mxGeometry x="0.7778" y="4" relative="1" as="geometry">
            <mxPoint x="4" y="-70" as="offset"/>
          </mxGeometry>
        </mxCell>
        <mxCell id="cF-n6QQyFELT4aqLtnUb-34" value="A" style="triangle;whiteSpace=wrap;html=1;" vertex="1" parent="1">
          <mxGeometry x="144" y="376" width="23" height="30" as="geometry"/>
        </mxCell>
        <mxCell id="cF-n6QQyFELT4aqLtnUb-36" value="B" style="triangle;whiteSpace=wrap;html=1;" vertex="1" parent="1">
          <mxGeometry x="144" y="420" width="23" height="30" as="geometry"/>
        </mxCell>
        <mxCell id="cF-n6QQyFELT4aqLtnUb-37" value="D" style="triangle;whiteSpace=wrap;html=1;" vertex="1" parent="1">
          <mxGeometry x="264" y="245" width="23" height="30" as="geometry"/>
        </mxCell>
        <mxCell id="cF-n6QQyFELT4aqLtnUb-45" style="rounded=0;orthogonalLoop=1;jettySize=auto;html=1;strokeColor=#2D7600;strokeWidth=2;fillColor=#60a917;" edge="1" parent="1" source="cF-n6QQyFELT4aqLtnUb-38">
          <mxGeometry relative="1" as="geometry">
            <mxPoint x="430" y="530" as="targetPoint"/>
          </mxGeometry>
        </mxCell>
        <mxCell id="cF-n6QQyFELT4aqLtnUb-38" value="C" style="triangle;whiteSpace=wrap;html=1;" vertex="1" parent="1">
          <mxGeometry x="144" y="460" width="23" height="30" as="geometry"/>
        </mxCell>
        <mxCell id="cF-n6QQyFELT4aqLtnUb-39" value="E" style="triangle;whiteSpace=wrap;html=1;" vertex="1" parent="1">
          <mxGeometry x="264" y="290" width="23" height="30" as="geometry"/>
        </mxCell>
        <mxCell id="cF-n6QQyFELT4aqLtnUb-40" value="" style="endArrow=classic;html=1;" edge="1" parent="1">
          <mxGeometry width="50" height="50" relative="1" as="geometry">
            <mxPoint x="570" y="160" as="sourcePoint"/>
            <mxPoint x="710" y="230" as="targetPoint"/>
          </mxGeometry>
        </mxCell>
        <mxCell id="cF-n6QQyFELT4aqLtnUb-42" value="" style="endArrow=classic;html=1;exitX=1;exitY=0.5;exitDx=0;exitDy=0;strokeWidth=2;fillColor=#e51400;strokeColor=#B20000;" edge="1" parent="1" source="cF-n6QQyFELT4aqLtnUb-38">
          <mxGeometry width="50" height="50" relative="1" as="geometry">
            <mxPoint x="130" y="820" as="sourcePoint"/>
            <mxPoint x="570" y="630" as="targetPoint"/>
          </mxGeometry>
        </mxCell>
        <mxCell id="cF-n6QQyFELT4aqLtnUb-43" value="" style="endArrow=classic;html=1;exitX=1;exitY=0.5;exitDx=0;exitDy=0;fillColor=#e51400;strokeColor=#B20000;strokeWidth=2;dashed=1;" edge="1" parent="1" source="cF-n6QQyFELT4aqLtnUb-39">
          <mxGeometry width="50" height="50" relative="1" as="geometry">
            <mxPoint x="280" y="350" as="sourcePoint"/>
            <mxPoint x="570" y="450" as="targetPoint"/>
          </mxGeometry>
        </mxCell>
        <mxCell id="cF-n6QQyFELT4aqLtnUb-44" value="" style="endArrow=classic;html=1;strokeColor=#2D7600;strokeWidth=2;exitX=1;exitY=0.5;exitDx=0;exitDy=0;fillColor=#60a917;dashed=1;" edge="1" parent="1" source="cF-n6QQyFELT4aqLtnUb-39">
          <mxGeometry width="50" height="50" relative="1" as="geometry">
            <mxPoint x="280" y="350" as="sourcePoint"/>
            <mxPoint x="430" y="350" as="targetPoint"/>
          </mxGeometry>
        </mxCell>
      </root>
    </mxGraphModel>
  </diagram>
</mxfile>
